<svg xmlns="http://www.w3.org/2000/svg" viewBox="0 0 63 64"><defs><style>.cls-1{fill:#4ed868;stroke:#4ed868;stroke-miterlimit:10;stroke-width:0.75px;}</style></defs><title>Mesa de trabajo 11</title><g id="detalles"><path class="cls-1" d="M25.83,29c3.25-2.43,5-6.1,5-11.82,0-11.27-5.38-14-11.59-14H2.11v56.6H19.67c6.59,0,12.77-4.94,12.77-16.43,0-7.11-2.15-12.37-6.61-14.33ZM10.07,12.77h7.48C20.42,12.77,23,14,23,19.24,23,24.05,21,26,18.15,26H10.07Zm8.52,37.32H10.07V34.51h8.68c3.51,0,5.73,2.28,5.73,8.08s-2.65,7.5-5.89,7.5ZM55.24,11.65H40.55V6.08H55.24v5.57ZM61,39.81c0-12.12-4.54-22.23-12.77-22.23-8,0-13.42,9.39-13.42,21.69C34.81,52,40,60.78,48.23,60.78c6.27,0,10.33-4.41,12.28-13.78H54.15a6.3,6.3,0,0,1-5.69,5.35c-4.23,0-6.45-3.87-6.45-10.43H60.94C61,41.25,61,40.53,61,39.81Zm-19-5c.24-5.38,2.53-8.75,6-8.75s5.43,3.32,5.74,8.75Z"/></g></svg>