<svg xmlns="http://www.w3.org/2000/svg" viewBox="0 0 61 64"><defs><style>.cls-1{fill:#4ed868;stroke:#4ed868;stroke-miterlimit:10;stroke-width:0.75px;}</style></defs><title>Mesa de trabajo 11 copia 2</title><g id="detalles"><path class="cls-1" d="M30.51,17.47A14.53,14.53,0,1,0,45,32,14.51,14.51,0,0,0,30.51,17.47Zm0,24A9.45,9.45,0,1,1,40,32a9.47,9.47,0,0,1-9.45,9.45ZM49,16.87a3.39,3.39,0,1,1-3.39-3.39A3.38,3.38,0,0,1,49,16.87Zm9.62,3.44c-.21-4.54-1.25-8.56-4.58-11.88S46.74,4.08,42.19,3.85s-18.7-.26-23.38,0c-4.53.22-8.56,1.26-11.88,4.57S2.58,15.76,2.35,20.3,2.08,39,2.35,43.69,3.6,52.25,6.93,55.57s7.33,4.35,11.88,4.58,18.7.26,23.38,0,8.57-1.26,11.88-4.58,4.35-7.34,4.58-11.88.27-18.7,0-23.38Zm-6,28.4a9.59,9.59,0,0,1-5.39,5.39c-3.74,1.48-12.59,1.14-16.71,1.14s-13,.33-16.71-1.14a9.59,9.59,0,0,1-5.39-5.39C6.93,45,7.27,36.12,7.27,32S6.94,19,8.41,15.29A9.53,9.53,0,0,1,13.8,9.9c3.73-1.48,12.58-1.14,16.71-1.14s13-.33,16.71,1.14a9.59,9.59,0,0,1,5.39,5.39C54.09,19,53.74,27.88,53.74,32S54.09,45,52.61,48.71Z"/></g></svg>