<svg xmlns="http://www.w3.org/2000/svg" viewBox="0 0 328 228"><defs><style>.cls-1{fill:#4ed868;}.cls-2{fill:none;stroke:#4ed868;stroke-miterlimit:10;stroke-width:3px;}.cls-3{fill:#348c42;}</style></defs><title>Mesa de trabajo 16</title><g id="detalles"><path class="cls-1" d="M165.82,132.62Q189,147.34,213.1,160.37t49.48,24.45q14.16,6.38,28.56,12.18a1.9,1.9,0,0,0,2.31-1.31,1.93,1.93,0,0,0-1.31-2.31q-25.41-10.24-50-22.3T193.9,145.31q-13.26-7.69-26.19-15.93c-2-1.3-3.92,1.94-1.89,3.24Z"/><path class="cls-1" d="M162.45,130.52,213.9,185l25.89,27.45,3.09,3.27a31.37,31.37,0,0,0,3,3.09c2.57,2.07,5.24.07,7.66-1.21L269.91,209l9.16-4.86,4.58-2.43c.79-.42,2.53-1.75,3.2-.68s1,3,1.4,4.37l1.51,5,3.09,10.22a1.88,1.88,0,0,0,2.3,1.3c3.11-1.29,3.66-4.3,3.12-7.36a39.36,39.36,0,0,0-1.42-4.72c-.64-2-1.19-4.07-1.65-6.13s-.84-4-1.08-6c-.1-.8-.28-1.14.45-1.45,1-.45,2.1-.78,3.14-1.16L310,190.52l13.87-5.1a1.89,1.89,0,0,0,0-3.62q-31.9-9.5-63.39-20.39t-62.36-23.14q-17.46-6.93-34.74-14.28a1.94,1.94,0,0,0-2.56.67,1.89,1.89,0,0,0,.67,2.57q30.79,13.11,62.16,24.88t63.28,22.12q17.89,5.82,36,11.19V181.8l-24.52,9a51,51,0,0,0-5.79,2.18,4.19,4.19,0,0,0-2.19,4.49,69,69,0,0,0,2.54,12.16c.54,1.85,1.32,3.65,1.7,5.54.15.71.5,2.67-.43,3.06l2.3,1.31c-1.82-6-3.62-12-5.45-18.05-.77-2.5-2.1-4.95-5.13-4.67a9.93,9.93,0,0,0-3.69,1.36l-4.36,2.31-16.58,8.8-8.29,4.4c-1.3.69-2.6,1.42-3.92,2.08-.54.27-.49.36-.91.06a14.45,14.45,0,0,1-1.74-1.84l-52-55.06L165.1,127.87c-1.65-1.76-4.3.9-2.65,2.65Z"/><path class="cls-1" d="M295.88,194.37c-1.48,8.83,3.37,16.28,6.62,24.08.18.42.34.84.5,1.26.09.23.55,1.08.47,1.37a5.09,5.09,0,0,1-1.71.36,12.09,12.09,0,0,1-5.8-1.34c-3.93-1.82-7.61-4.29-11.34-6.48l-13.34-7.85c-2.08-1.23-4,2-1.89,3.23l12.91,7.6c4.12,2.43,8.19,5.21,12.58,7.11a16.19,16.19,0,0,0,6.44,1.5c1.94,0,4.36-.46,5.43-2.28,1.18-2-.2-4.47-1-6.36-.9-2.1-1.91-4.15-2.88-6.23-2.15-4.61-4.25-9.78-3.38-15,.4-2.36-3.21-3.38-3.61-1Z"/><ellipse class="cls-2" cx="78.59" cy="72.18" rx="66.6" ry="63.97"/><path class="cls-3" d="M94.34,83.2a104.22,104.22,0,0,0-16.49,6.12c-2.3,1.08-4.65,2.32-6.15,4.32s-1.9,5-.25,6.87c1.31,1.5,3.5,2,5.53,2.16a40.07,40.07,0,0,0,22.41-4.26c3.75-2,7.57-5.52,6.54-9.49-.59-2.26-2.7-3.93-5-4.71a23.15,23.15,0,0,0-7.2-.83"/><path class="cls-1" d="M93.84,81.4A106,106,0,0,0,83.3,84.94,60.58,60.58,0,0,0,74,89.2c-2.66,1.61-5,4-5.43,7.14a6.59,6.59,0,0,0,4,7.23c2.92,1.25,6.45,1.26,9.58,1.16a42.9,42.9,0,0,0,10.2-1.56c5.57-1.57,12.92-4.45,15.09-10.38a7.54,7.54,0,0,0-2.67-8.56c-3.17-2.49-7.23-2.68-11.1-2.72-2.41,0-2.42,3.72,0,3.75,2.64,0,5.54,0,7.92,1.32,1.78,1,3,2.8,2.35,4.89s-2.74,3.68-4.57,4.77a32.5,32.5,0,0,1-7.39,3.13,35.93,35.93,0,0,1-15.92,1.32c-2.06-.35-4.19-1.29-3.84-3.75S74.71,93.1,76.63,92a84.69,84.69,0,0,1,18.21-7c2.32-.65,1.34-4.27-1-3.61Z"/><path class="cls-1" d="M106.32,89.41a10,10,0,0,1,.57-12.54c1.63-1.77-1-4.43-2.65-2.65a13.74,13.74,0,0,0-1.16,17.08,1.94,1.94,0,0,0,2.57.67,1.89,1.89,0,0,0,.67-2.56Z"/><path class="cls-1" d="M70.73,98.36a14.52,14.52,0,0,0-10.23-5,1.89,1.89,0,0,0-1.88,1.88,1.92,1.92,0,0,0,1.88,1.87l.63,0s.37,0,.1,0,.05,0,.1,0c.42.07.83.15,1.24.26s.77.23,1.14.37L64,98c.43.16-.23-.11,0,0l.57.27c.36.18.7.37,1,.58l.52.35.23.16c.18.13.06,0,0,0A9.12,9.12,0,0,1,68.07,101a1.89,1.89,0,0,0,2.66,0,1.93,1.93,0,0,0,0-2.65Z"/><path class="cls-1" d="M79.29,86.48,76.69,81a1.86,1.86,0,0,0-1.12-.86,1.86,1.86,0,0,0-2.31,1.3,2.09,2.09,0,0,0,.19,1.45l2.61,5.49a1.88,1.88,0,0,0,1.12.87,2,2,0,0,0,1.44-.19,1.92,1.92,0,0,0,.86-1.12,2.09,2.09,0,0,0-.19-1.45Z"/><path class="cls-1" d="M91.66,85a41.16,41.16,0,0,0-.37-10.34A1.86,1.86,0,0,0,89,73.3a1.92,1.92,0,0,0-1.31,2.3c0,.22.06.44.1.66s0,.13,0,0a2.89,2.89,0,0,1,0,.29c0,.4.09.81.13,1.22.07.79.12,1.58.14,2.37A37.23,37.23,0,0,1,87.91,85a1.88,1.88,0,0,0,1.88,1.87A1.92,1.92,0,0,0,91.66,85Z"/><path class="cls-3" d="M46.44,30.36A31.72,31.72,0,0,0,29.16,46.53a3.45,3.45,0,0,0-.42,2.18c.49,2,3.54,1.82,5.49,1A28.76,28.76,0,0,0,48,36.93c1.06-2,1.39-5.23-.88-5.88"/><path class="cls-1" d="M45.94,28.55A34.94,34.94,0,0,0,34.2,36.12a34,34,0,0,0-4.4,5.38,29.46,29.46,0,0,0-1.62,2.77,9.3,9.3,0,0,0-1.36,3.81c-.07,2.46,1.95,3.92,4.23,4.07a11.55,11.55,0,0,0,6-1.78,31,31,0,0,0,10.35-9A15,15,0,0,0,50.58,35c.37-2.47-.41-4.9-3-5.75-2.29-.77-3.28,2.85-1,3.61,0,0,.2.16.15.09.12.18.11.18.16.5a4.47,4.47,0,0,1-.22,1.71,15.24,15.24,0,0,1-2.44,4.22,26.6,26.6,0,0,1-7.91,7.1,12.2,12.2,0,0,1-4.42,1.92,2.8,2.8,0,0,1-1.43-.14c.23.09,0-.06-.07-.07s.15.08.16.18a2.1,2.1,0,0,1,.18-.88,26.93,26.93,0,0,1,6.07-8.7,30,30,0,0,1,10.09-6.61,1.94,1.94,0,0,0,1.31-2.31,1.9,1.9,0,0,0-2.31-1.31Z"/><path class="cls-1" d="M27.34,50.65l.47.54c-.22-.27.19.28.23.33a12.5,12.5,0,0,1,.74,1.2c.11.21.22.42.32.63a3.09,3.09,0,0,1,.14.32c-.07-.18-.07-.17,0,0,.16.44.31.88.44,1.34s.21.9.29,1.36c0,.23,0,.23,0,0,0,.12,0,.23,0,.35s0,.46,0,.7c0,.46,0,.93,0,1.39,0,.08-.11.78,0,.37,0,.23-.08.46-.13.69a1.88,1.88,0,0,0,3.62,1A14.81,14.81,0,0,0,30,48a1.9,1.9,0,0,0-2.66,0,1.93,1.93,0,0,0,0,2.65Z"/><path class="cls-1" d="M45.09,34.3A18.27,18.27,0,0,0,59.84,44.69a1.88,1.88,0,0,0,1.87-1.87,1.92,1.92,0,0,0-1.87-1.88c-.63-.07.34.07-.28,0l-.48-.08c-.32-.06-.64-.13-.95-.21-.66-.17-1.3-.39-1.94-.62-.28-.11,0,0-.18-.08l-.45-.2c-.32-.15-.63-.31-.94-.48a16.11,16.11,0,0,1-1.72-1.09,5,5,0,0,1-.53-.41c-.25-.2-.49-.42-.72-.63a17.27,17.27,0,0,1-1.38-1.46l-.3-.37c.18.23-.16-.24-.16-.23-.18-.26-.35-.53-.52-.79a16.21,16.21,0,0,1-1-1.85,1.89,1.89,0,0,0-2.57-.67,1.92,1.92,0,0,0-.67,2.56Z"/><path class="cls-1" d="M39.14,50.38l3.2,2.44a2.17,2.17,0,0,0,1.45.19A1.88,1.88,0,0,0,45.1,50.7l-.19-.44a1.9,1.9,0,0,0-.67-.68L41,47.14A2.09,2.09,0,0,0,39.59,47a1.89,1.89,0,0,0-1.12.86,1.86,1.86,0,0,0-.19,1.44l.19.45a1.87,1.87,0,0,0,.67.67Z"/><path class="cls-1" d="M49.39,32.53c2.63,1.85,5.45,3.79,8.68,4.38a10.11,10.11,0,0,0,8.85-2.21c1.76-1.65-.9-4.3-2.66-2.65-1.5,1.41-3.88,1.59-5.87,1.09-2.64-.65-4.91-2.3-7.11-3.85a1.89,1.89,0,0,0-2.56.67,1.92,1.92,0,0,0,.67,2.57Z"/><path class="cls-1" d="M72.62,138.4l8.74-.56c2.18-.14,4.6-.45,6.7.33,1.9.71,2.55,2.68,3.77,4.12a5.21,5.21,0,0,0,6.27,1.24c5.42-2.22,10.71-4.8,16.05-7.2l8.18-3.67c2.4-1.09,3.51-3,3-5.6-.25-1.14-.84-2.21-1-3.38a6.73,6.73,0,0,1,.33-2.92,7.12,7.12,0,0,1,4.07-4.38,1.93,1.93,0,0,0,1.31-2.3,1.89,1.89,0,0,0-2.31-1.31,11.07,11.07,0,0,0-7.15,9.39,9.82,9.82,0,0,0,.21,2.91,20.52,20.52,0,0,1,1,3.17c0,1-1.21,1.15-2,1.48l-4.08,1.84-16.12,7.25a15.09,15.09,0,0,1-3.65,1.52c-.83.12-1.24-.45-1.68-1.08-1.27-1.78-2.28-3.46-4.38-4.38a16.22,16.22,0,0,0-7.51-.85c-3.24.2-6.47.42-9.71.63-2.4.15-2.41,3.9,0,3.75Z"/><path class="cls-1" d="M102.06,136.93l-8.51-9a1.88,1.88,0,1,0-2.65,2.66l8.51,9a1.89,1.89,0,0,0,2.65,0,1.91,1.91,0,0,0,0-2.65Z"/><path class="cls-1" d="M111.12,132.16a21.72,21.72,0,0,0-6.64-9.18,2.06,2.06,0,0,0-1.33-.55,2,2,0,0,0-1.33.55,1.9,1.9,0,0,0,0,2.65,19.18,19.18,0,0,1,1.89,1.71c.3.31.6.63.88,1l.39.47c.14.18.15.17,0,0l.21.27a21.08,21.08,0,0,1,1.36,2.11c.2.36.38.72.56,1.09.07.15.16.51.28.61-.07-.06-.13-.31,0-.07s.1.25.14.38a1.93,1.93,0,0,0,2.31,1.31,1.9,1.9,0,0,0,1.31-2.31Z"/><path class="cls-1" d="M118.53,130.32v-9.2a1.88,1.88,0,0,0-3.75,0v9.2a1.88,1.88,0,0,0,3.75,0Z"/><path class="cls-1" d="M127.39,29.22A6,6,0,0,0,130.93,31c1.14.21,2.59.19,3.47,1,1.21,1.17,2,3,2.91,4.44l3.18,5L142.08,44c.4.62,1.14,1.43,1.13,2.21a9.25,9.25,0,0,1-.92,2.47,14.42,14.42,0,0,0-.63,2.49A17.53,17.53,0,0,0,143,61.4a1.88,1.88,0,0,0,3.24-1.89,13.37,13.37,0,0,1-.29-10c.69-1.87,1.4-3.44.5-5.4a41.49,41.49,0,0,0-3-4.91l-3.18-5a34.9,34.9,0,0,0-3-4.51,6.46,6.46,0,0,0-3.72-2c-1.15-.23-2.7-.15-3.53-1.09-1.6-1.81-4.24.85-2.65,2.65Z"/><path class="cls-1" d="M8.61,71.49c0,.89-.86,1.47-1.76,2.06a22.8,22.8,0,0,0-3.74,2.62,7,7,0,0,0-2,5.2c0,2.49,0,5,0,7.48,0,3.85-.76,9.88,4.41,10.67,2.05.31,3.94,0,5.87,1a8.45,8.45,0,0,1,3.89,3.88c1.07,2.16,4.31.26,3.23-1.89A12.12,12.12,0,0,0,9.22,96c-1.52-.19-3.81.53-4.19-1.43-.41-2.12-.12-4.52-.13-6.68a59.75,59.75,0,0,1,0-7.33c.17-1.34,1.13-2,2.2-2.73,2.37-1.54,5.34-3,5.26-6.32-.06-2.41-3.81-2.42-3.75,0Z"/><path class="cls-1" d="M7.69,93.32a22,22,0,0,1,2.68.58c.44.13.87.27,1.3.42l.64.24c.2.09.21.09,0,0l.32.14A20.4,20.4,0,0,1,15.05,96c.38.23.76.48,1.13.75.05,0,.6.45.3.21l.52.42a1.87,1.87,0,0,0,2.65-2.65,22.53,22.53,0,0,0-11-5A1.94,1.94,0,0,0,6.38,91a1.91,1.91,0,0,0,1.31,2.31Z"/><path class="cls-1" d="M9.89,86.57l1-.2.43-.07c.08,0,.58-.09.08,0,.63-.09,1.27-.13,1.9-.16a22.89,22.89,0,0,1,3.79.15,1.84,1.84,0,0,0,1.32-.55,1.87,1.87,0,0,0,0-2.65,2.21,2.21,0,0,0-1.32-.55,24.07,24.07,0,0,0-8.2.44,1.9,1.9,0,0,0-1.31,2.31,1.92,1.92,0,0,0,2.31,1.3Z"/><path class="cls-3" d="M133.46,65.42a65.65,65.65,0,0,0-3.27,13.07c-.32,2.23-.22,5,1.88,6a32.26,32.26,0,0,0,5.72-16.45c.1-1.81-.23-4-2-4.73"/><path class="cls-1" d="M131.65,64.92a66.78,66.78,0,0,0-3.15,12.29c-.49,3.16-.67,7.18,2.62,8.93a1.93,1.93,0,0,0,2.57-.67,34,34,0,0,0,5.38-12.73c.65-3.37,1.7-9.22-2.31-11a1.94,1.94,0,0,0-2.57.67,1.89,1.89,0,0,0,.67,2.57c1.09.49,1.09,1.78,1.06,2.85a25.68,25.68,0,0,1-.78,5.37,31.52,31.52,0,0,1-4.69,10.4l2.56-.67c-2-1.08-.88-5-.56-6.66a66.84,66.84,0,0,1,2.82-10.33,1.88,1.88,0,1,0-3.62-1Z"/><path class="cls-1" d="M136.91,61.77a6.5,6.5,0,0,1-.62-.22c-.15,0-.39-.24.05,0-.08,0-.17-.08-.25-.12a11.54,11.54,0,0,1-1.1-.58c-.34-.2-.67-.43-1-.66s.34.28,0,0l-.25-.21a5.34,5.34,0,0,1-.44-.39,11,11,0,0,1-.82-.85c-.13-.14-.24-.31-.38-.45.37.37.13.16,0,0l-.19-.26a11.1,11.1,0,0,1-.61-1c-.1-.18-.19-.37-.28-.56s-.08-.2-.13-.29l.1.25c0-.06-.05-.13-.07-.2a2.09,2.09,0,0,0-.86-1.12A2,2,0,0,0,128.7,55a1.91,1.91,0,0,0-1.31,2.31,13.75,13.75,0,0,0,8.52,8.06,1.9,1.9,0,0,0,2.31-1.31,1.94,1.94,0,0,0-1.31-2.31Z"/><path class="cls-1" d="M128.14,81.24h-6.38a1.88,1.88,0,1,0,0,3.75h6.38a1.88,1.88,0,1,0,0-3.75Z"/><path class="cls-1" d="M128,69.66a15.29,15.29,0,0,1-1.76-.62l.44.19a15.36,15.36,0,0,1-3.37-2l.38.3c-.21-.16-.41-.33-.6-.49a2,2,0,0,0-1.33-.55,1.88,1.88,0,0,0-1.33,3.2A17.58,17.58,0,0,0,127,73.28a1.88,1.88,0,0,0,1-3.62Z"/><path class="cls-1" d="M128.41,65l-5.83-4.18a1.89,1.89,0,0,0-1.45-.19,1.87,1.87,0,0,0-1.31,2.3,2.17,2.17,0,0,0,.87,1.13l5.82,4.18a1.93,1.93,0,0,0,1.45.19,2,2,0,0,0,1.12-.86,1.94,1.94,0,0,0,.19-1.45,2.18,2.18,0,0,0-.86-1.12Z"/><path class="cls-1" d="M65,10.24a6.09,6.09,0,0,0,1.86-3.55c.3-1.3.32-2.15,1.77-2.41a38.92,38.92,0,0,1,11.2-.09,41.39,41.39,0,0,1,5.42,1c1.29.33,3.5.59,4.42,1.65.68.8.81,2.09,1.17,3a5.11,5.11,0,0,0,2.56,3A1.93,1.93,0,0,0,96,12.27a1.88,1.88,0,0,0-.67-2.56c-1-.46-1.13-1.77-1.46-2.75a6.52,6.52,0,0,0-2.58-3.61,18.53,18.53,0,0,0-5.68-1.93,49.8,49.8,0,0,0-6.2-1,46.33,46.33,0,0,0-6-.24A25.7,25.7,0,0,0,67,.8a4.9,4.9,0,0,0-3.37,3.26c-.42,1.14-.32,2.72-1.32,3.53A1.87,1.87,0,0,0,65,10.24Z"/><path class="cls-1" d="M16.6,48.32a4,4,0,0,0-.78-4.84,8.93,8.93,0,0,0-1.72-1.34c-.4-.25-1.25-.64-1.38-1.16-.17-.69.69-1.92,1-2.49.42-.89.85-1.77,1.3-2.64q1.39-2.72,3-5.32A24.6,24.6,0,0,1,21.12,26c1.29-1.31,2.45-1.23,4.12-.7a14.92,14.92,0,0,0,11.34-.61c2.18-1.05.28-4.28-1.89-3.24a10.41,10.41,0,0,1-5.66.94c-2-.22-3.74-1.28-5.74-1.28-3.95,0-6.21,3.78-8.07,6.72a63.92,63.92,0,0,0-5.8,11,4.56,4.56,0,0,0,1,5.23,17.24,17.24,0,0,0,2.05,1.45,3.67,3.67,0,0,1,.68.57c.21.24.14.38.19.3-1.29,2,2,3.93,3.24,1.89Z"/><path class="cls-1" d="M29.31,115.23a5.57,5.57,0,0,0-4.38,7.52c1.41,3.8,5.48,5,8.81,6.54a12.1,12.1,0,0,1,2.35,1.34,15,15,0,0,1,1.8,2,4.74,4.74,0,0,0,4.42,1.49A16.58,16.58,0,0,0,46,132.85a6.68,6.68,0,0,1,1.77-.58.59.59,0,0,1,.43.08c1.79,1.62,4.45-1,2.65-2.65-2.15-1.94-4.65-1-7,0a7.36,7.36,0,0,1-2.47.77c-.31,0-.45,0-.84-.48A18.54,18.54,0,0,0,39,128.21c-2.45-2.21-5.73-2.82-8.47-4.53-1-.61-2.1-1.52-2.2-2.75-.05-.59.22-1.85,1-2a1.94,1.94,0,0,0,1.88-1.88,1.89,1.89,0,0,0-1.88-1.87Z"/><path class="cls-1" d="M121.12,51.89a1.88,1.88,0,0,0,0-3.75,1.88,1.88,0,0,0,0,3.75Z"/><path class="cls-1" d="M95,32.27a1.88,1.88,0,0,0,0-3.75,1.88,1.88,0,0,0,0,3.75Z"/><path class="cls-1" d="M89.85,48.21a1.88,1.88,0,0,0,0-3.75,1.88,1.88,0,0,0,0,3.75Z"/><path class="cls-1" d="M52.2,56.18a1.88,1.88,0,0,0,0-3.75,1.88,1.88,0,0,0,0,3.75Z"/><path class="cls-1" d="M33.69,83.76a1.88,1.88,0,0,0,0-3.75,1.88,1.88,0,0,0,0,3.75Z"/><path class="cls-1" d="M63.05,112a1.88,1.88,0,0,0,0-3.75,1.88,1.88,0,0,0,0,3.75Z"/><path class="cls-1" d="M106.44,106.45a1.88,1.88,0,0,0,0-3.75,1.88,1.88,0,0,0,0,3.75Z"/><path class="cls-1" d="M121.12,97.25a1.88,1.88,0,0,0,0-3.75,1.88,1.88,0,0,0,0,3.75Z"/><path class="cls-1" d="M72,34.11a1.88,1.88,0,0,0,0-3.75,1.88,1.88,0,0,0,0,3.75Z"/><path class="cls-1" d="M75.17,25.53a1.88,1.88,0,0,0,0-3.75,1.88,1.88,0,0,0,0,3.75Z"/><path class="cls-1" d="M70.07,64.15a1.88,1.88,0,0,0,0-3.75,1.88,1.88,0,0,0,0,3.75Z"/><path class="cls-1" d="M38.16,81.92a1.88,1.88,0,0,0,0-3.75,1.88,1.88,0,0,0,0,3.75Z"/><path class="cls-1" d="M44.54,114.41a1.88,1.88,0,0,0,0-3.75,1.88,1.88,0,0,0,0,3.75Z"/></g></svg>