<svg id="Capa_2" data-name="Capa 2" xmlns="http://www.w3.org/2000/svg" viewBox="0 0 545.75 528.86"><defs><style>.cls-1{fill:#4ed868;stroke:#4ed868;stroke-miterlimit:10;stroke-width:0.75px;}</style></defs><title>Mesa de trabajo 1</title><path class="cls-1" d="M273.66,446.27c54.9-.44,99.21-45.24,98.78-99.89a16.6,16.6,0,0,0-33.19.26c.29,36.44-29.26,66.31-65.85,66.59a16.52,16.52,0,1,0,.26,33ZM353.48,54.2a16.44,16.44,0,0,0-2.85-9.11L324.91,7.26A16.65,16.65,0,0,0,311,0L229.25.65A16.58,16.58,0,0,0,215.5,8.13L190.38,46.36a16.42,16.42,0,0,0-2.71,9.14l.3,44.58,165.9-1.31ZM274.31,528.85c106.08-.83,181.86-87.09,181.1-183.12a180.19,180.19,0,0,0-46.12-119.17c-17.41-19.46-44.8-60.35-55.12-94.71v-.06l-49.78.4v.12a48.74,48.74,0,0,0,2.35,14.51c5.94,18.34,24.19,66.67,65.37,112.7a131.42,131.42,0,0,1,33.47,86.6c.81,76-60.85,132.62-131.66,133.18-73.21.58-133.23-58.23-133.8-131.09a131.37,131.37,0,0,1,32.14-87.11c40.2-46.37,57.77-94.89,63.52-113.51A48.69,48.69,0,0,0,238,132.81v-.1l-49.78.39v.05c-9.77,34.53-36.52,75.84-53.62,95.57A180.3,180.3,0,0,0,90.34,348.61C91.13,449,173.5,529.65,274.31,528.85Z"/></svg>