<svg xmlns="http://www.w3.org/2000/svg" viewBox="0 0 283 234"><defs><style>.cls-1{fill:#4ed868;}</style></defs><title>Mesa de trabajo 16 copia</title><g id="detalles"><path class="cls-1" d="M31.54,229.78a83,83,0,0,0-1.17-44.64C28.24,178,25.54,171,23.43,163.76a102.2,102.2,0,0,1-4.11-22.21c-.9-13.85,1.54-28.17,9-40.07C35.55,89.87,47.56,82.31,60.16,77.6c13.29-5,27.5-6.81,41.63-6.86,14.61,0,29.49,1.44,43.3,6.46C157,81.55,168,88.84,176,98.85c4.24,5.35,7.79,11.57,8.88,18.39,1.12,7.07-.49,14.27-2.81,21-2.41,6.95-5.71,13.53-8.59,20.29a100,100,0,0,0-6.77,21.05,65.91,65.91,0,0,0,5.1,39.7,60.07,60.07,0,0,0,4.83,8.43c1.36,2,4.61.11,3.24-1.89A61.29,61.29,0,0,1,169.48,187c1.07-15.15,8.4-28.41,14.05-42.19,2.74-6.69,5-13.7,5.37-21A36.85,36.85,0,0,0,183.36,103c-6.72-11.25-17.11-20-28.8-25.8-13.26-6.52-28-9.16-42.64-9.94S82.6,67.31,68.49,71C55.16,74.56,41.76,80.73,32,90.71S17.2,114.2,15.79,127.86c-1.6,15.54,1.8,30.74,6.74,45.38,2.39,7.09,4.92,14.17,6.41,21.53a76.18,76.18,0,0,1,1,22.95,74.35,74.35,0,0,1-2,11.07c-.6,2.33,3,3.33,3.62,1Z"/><path class="cls-1" d="M29.18,231.7l83,.24c27.43.07,54.87.39,82.3.22,11.69-.07,24.21-1.52,32.92-10.17,8-8,8.93-19.33,8.45-30s-2.4-22.35,1.93-32.54a30.6,30.6,0,0,1,8.91-11.75c3.53-2.85,8.32-5.32,12.93-5.56a3.36,3.36,0,0,1,3.11,1.17,11.54,11.54,0,0,1,1.57,3.28,23.27,23.27,0,0,1,1.22,6.5c.15,3.89-.58,8.32-3.34,11.27-3.56,3.77-9.5,2.63-13.25,6.21a11,11,0,0,0-1,14.53,9.83,9.83,0,0,0,6,3.71A1.9,1.9,0,0,0,256,186c-2-3.42.49-7.22,3.14-9.41,3.07-2.55,6.78-4.31,10.11-6.51,6.34-4.18,12.32-10.43,12.18-18.56-.12-7.25-5.23-13.12-11.13-16.76-6.75-4.17-15.4-6.42-23.28-5-7.47,1.35-13.51,6.47-18,12.37a59,59,0,0,0-10,22,65.29,65.29,0,0,0-1.68,12.68c-.13,3.87.14,7.74.32,11.61.33,7.13.63,15.29-4,21.25-3.62,4.66-9.4,6.63-14.85,8.22-5.83,1.7-12,3.1-17.07,6.57a24,24,0,0,0-3.57,3c-1.7,1.71.95,4.36,2.65,2.65,8.52-8.57,22.3-7.1,31.74-14.18,12.84-9.63,7.82-26.78,8.58-40.42a60.11,60.11,0,0,1,6.17-23.43c3.21-6.43,7.68-12.7,14.05-16.3,7.09-4,15.43-3,22.7,0,5.8,2.41,11.83,7,13.28,13.38,1.71,7.51-4.12,13.74-9.86,17.56-6.06,4-15.14,7.49-15.95,15.8a8.79,8.79,0,0,0,1.17,5.38l2.12-2.76c-5.09-.88-7-7-4.13-11,1.57-2.22,4.2-2.7,6.68-3.3a15,15,0,0,0,6.58-3.09c6.83-5.88,6.46-17.76,2.68-25.17a7.17,7.17,0,0,0-6.67-4.25,21.47,21.47,0,0,0-7.18,1.57,32.05,32.05,0,0,0-12.46,8.59A34,34,0,0,0,233,161.86a55,55,0,0,0-1.6,16.71c.31,10.59,2.52,22-1.19,32.22-3.93,10.86-14.89,16-25.72,17.15-6.73.73-13.55.47-20.3.45l-20.5-.06-41.49-.12-83-.23-10,0c-2.41,0-2.42,3.74,0,3.75Z"/><path class="cls-1" d="M42.49,158.69a68.68,68.68,0,0,1-5-14.4l-.87,2.12c12.63-9.16,28.18-12.5,43.54-12.87a142.53,142.53,0,0,1,48.18,7.18A132.37,132.37,0,0,1,153.6,152.2a1.88,1.88,0,0,0,1.89-3.24,139.35,139.35,0,0,0-47.65-17.16c-16-2.65-32.81-3.18-48.65.51a67.84,67.84,0,0,0-24.48,10.86,2,2,0,0,0-.86,2.12,72.77,72.77,0,0,0,5.4,15.29c1,2.18,4.29.28,3.24-1.89Z"/><path class="cls-1" d="M44.28,137.69a72.1,72.1,0,0,1-7-24.81l-3.2,1.33c2.12,1.64,3.44,4.09,5.13,6.14a38.75,38.75,0,0,0,20.05,12.83c2.34.59,3.34-3,1-3.62a33.88,33.88,0,0,1-13.18-6.64,37.72,37.72,0,0,1-5.35-5.37c-1.64-2-2.91-4.38-5-6-1.12-.87-3.37-.49-3.2,1.32A77,77,0,0,0,41,139.58c1.06,2.17,4.29.27,3.24-1.89Z"/><path class="cls-1" d="M89,129.13a150.93,150.93,0,0,1,.1-18.42l-3.5.94c5.45,9,12.29,17.72,21.86,22.51,2.15,1.08,4-2.16,1.89-3.24-9-4.52-15.37-12.72-20.51-21.16a1.89,1.89,0,0,0-3.49.95,150.93,150.93,0,0,0-.1,18.42c.14,2.4,3.89,2.42,3.75,0Z"/><path class="cls-1" d="M37.34,173a19.1,19.1,0,0,0,12.23,17.12,16.29,16.29,0,0,0,11.14-.23c4.1-1.46,7.75-3.92,11.82-5.44,4.41-1.64,9.11-2,13.78-2a130.39,130.39,0,0,1,15.18.68c4.76.49,9.41,1.42,14.12,2.19,4.08.67,8.3,1.13,12.37.16,9.51-2.25,12.82-11.85,15.13-20.23.65-2.33-3-3.32-3.61-1-1.77,6.4-4,14.73-11,17.18-3.54,1.23-7.41,1-11.06.4-4.26-.66-8.48-1.54-12.76-2.09a131.82,131.82,0,0,0-14.18-1,72.34,72.34,0,0,0-13.4.71,40.76,40.76,0,0,0-11.73,4.3c-3.38,1.72-7,3.66-10.89,3.59C47.12,187.15,41.31,180,41.09,173c-.07-2.41-3.82-2.42-3.75,0Z"/><path class="cls-1" d="M51.12,191.06c2.45,5.45,5.16,11.2,10.13,14.81,5.55,4,12.53,3.33,18.86,2,3.47-.73,6.9-1.55,10.4-2.09a92.1,92.1,0,0,1,11-1,94.41,94.41,0,0,1,11.28.35c3.28.3,6.48.47,9.41-1.29,5.26-3.14,7.46-9.76,9.09-15.3.68-2.32-2.93-3.32-3.61-1-1.28,4.34-2.84,9.66-6.59,12.55-2.33,1.79-5,1.6-7.83,1.34a95.76,95.76,0,0,0-10.31-.43,100.66,100.66,0,0,0-20.38,2.46c-5.64,1.26-12.27,3.13-17.72.21s-8.09-9.2-10.49-14.53a1.88,1.88,0,0,0-2.56-.67,1.9,1.9,0,0,0-.67,2.56Z"/><path class="cls-1" d="M60.74,207.49a22.41,22.41,0,0,1,8,11.64c.7,2.37,1.3,4.73,3.93,5.57a18.24,18.24,0,0,0,4,.54c1.54.14,3.09.25,4.63.32a106.3,106.3,0,0,0,18.27-.74c5.27-.67,10.76-1.26,14.23-5.78,1.67-2.18,2.7-4.73,4.07-7.09,1.09-1.88,2.78-4.39,5.14-4.71a1.93,1.93,0,0,0,1.88-1.87,1.89,1.89,0,0,0-1.88-1.88c-5,.67-7.62,5-9.74,9.15-1.06,2-2.14,4.31-4,5.76s-4.49,1.88-6.83,2.25a103.24,103.24,0,0,1-17.74,1.26q-4.39-.06-8.77-.48c-.87-.09-2.21,0-2.76-.82s-.72-2.37-1.08-3.42a26.65,26.65,0,0,0-9.38-12.94,1.88,1.88,0,0,0-1.9,3.24Z"/><path class="cls-1" d="M41.12,171.05c-1.55-3,18.76-7.24,21.08-7.6a82.26,82.26,0,0,1,12.15-1q3.12,0,6.23.19c1.3.09,3.1.07,4.12,1a4.68,4.68,0,0,1,1,2.68c.21,1.18.4,2.36.61,3.54l1.25,7.33c.41,2.38,4,1.37,3.62-1l-1.3-7.57c-.38-2.26-.47-5-1.85-6.89a7.09,7.09,0,0,0-5-2.64,51.77,51.77,0,0,0-7-.42,87.38,87.38,0,0,0-29.17,4.64c-2.32.79-5,1.51-7,3A5.16,5.16,0,0,0,37.88,173c1.09,2.15,4.33.25,3.24-1.9Z"/><path class="cls-1" d="M90.9,174.8c-.25-2.73-.76-7,1.55-9.05,1.44-1.29,4-1.5,5.78-2,2.36-.59,4.72-1.17,7.08-1.69,8.59-1.89,17.58-3.12,26.31-1.47a36.34,36.34,0,0,1,13,5.1c2,1.31,3.92-1.94,1.89-3.24-7.81-5-17.28-6.75-26.47-6.3a93.88,93.88,0,0,0-15.54,2.24c-2.6.57-5.2,1.21-7.78,1.86-2.27.57-4.76,1-6.61,2.5-3.44,2.84-3.38,8-3,12,.21,2.38,4,2.41,3.75,0Z"/><path class="cls-1" d="M127.66,181.15a1.88,1.88,0,0,0,0-3.75,1.88,1.88,0,0,0,0,3.75Z"/><path class="cls-1" d="M50.27,184.3a1.88,1.88,0,0,0,0-3.75,1.88,1.88,0,0,0,0,3.75Z"/><path class="cls-1" d="M87.71,181.78l-.39,20.76c0,2.42,3.71,2.42,3.75,0l.39-20.76c.05-2.41-3.7-2.41-3.75,0Z"/><path class="cls-1" d="M88.54,205.8l-.31,16.6c0,2.42,3.71,2.42,3.75,0l.31-16.6c0-2.42-3.7-2.42-3.75,0Z"/><path class="cls-1" d="M48.5,108.45a17.49,17.49,0,0,1,.7-8.37,10.28,10.28,0,0,1,1.73-3.45c.92-1.07,1.59-.24,2.52.47,5,3.81,9.81,7.89,14.44,12.14A1.88,1.88,0,0,0,70.83,107c-5-9.59-14.78-15-24.57-18.58l-1,3.62c4.93,1.53,9,4.86,12.7,8.28,3.95,3.6,7.75,7.41,12.23,10.36,1.76,1.15,3.93-1.57,2.28-2.94-3.2-2.66-7.13-3-11.11-2.35-4.3.71-8.61,3-13.06,2.27-2.36-.4-3.37,3.21-1,3.61,4.47.76,8.55-.7,12.82-1.78,3.11-.79,7-1.33,9.7.9l2.27-3c-9-5.89-15.22-15.72-25.83-19-2.34-.72-3.23,2.79-1,3.62,8.89,3.29,17.79,8.15,22.34,16.85l2.94-2.27q-4.35-4-8.91-7.76c-1.51-1.24-3.05-2.47-4.6-3.67-1.38-1.07-2.8-2.5-4.58-2.82-3.69-.65-5.71,3.51-6.72,6.34a21.42,21.42,0,0,0-.85,10.77c.4,2.38,4,1.37,3.62-1Z"/><path class="cls-1" d="M91,105.2A26,26,0,0,1,105.76,92c3.71-1.23,7.53-1.27,11.4-1.18q7,.18,13.9.75c2.41.2,2.4-3.55,0-3.75-5-.4-9.91-.67-14.87-.77a33.13,33.13,0,0,0-12.12,1.57,29.92,29.92,0,0,0-16.34,14.67c-1.08,2.15,2.15,4,3.24,1.89Z"/><path class="cls-1" d="M91.42,106a163.12,163.12,0,0,0,22.3,1.56c3.52,0,6.55-.53,9-3.28s4.68-5.77,7-8.65a1.93,1.93,0,0,0,0-2.66A1.9,1.9,0,0,0,127,93c-2.14,2.67-4.27,5.35-6.44,8a6.61,6.61,0,0,1-3.36,2.59,18.23,18.23,0,0,1-4.49.25,153.54,153.54,0,0,1-20.33-1.42,2,2,0,0,0-2.31,1.31A1.9,1.9,0,0,0,91.42,106Z"/><path class="cls-1" d="M88.56,103.55c-1.3-.43-1.92-1.92-2.08-3.18a6.44,6.44,0,0,1,1.45-4.68c2.45-3.22,6.72-5.1,10.45-6.35a76.93,76.93,0,0,1,13.26-2.84A121.25,121.25,0,0,1,126,85.18a62.31,62.31,0,0,1,16.34,1.57L141.22,84l-1.89,3.89-.83,1.73L138,90.7c-.15.3-.51.61-.07.31l.95-.26A16.14,16.14,0,0,1,137,89.47a18.76,18.76,0,0,0-2.67-1.29,20.82,20.82,0,0,0-5.45-1.29,39.13,39.13,0,0,0-11.27.67c-7.08,1.26-14.44,2.93-20.82,6.33a28.44,28.44,0,0,0-9.44,8,1.9,1.9,0,0,0,.68,2.57,1.92,1.92,0,0,0,2.56-.67c4.79-6.39,12.68-9.11,20.14-10.94a79.28,79.28,0,0,1,11.92-2.26c4-.36,8.2-.21,11.79,1.71,2,1,4.33,3.65,6.29,1.06A20.4,20.4,0,0,0,142.47,90l2-4.11a1.91,1.91,0,0,0-1.12-2.76c-11-2.67-22.32-1.79-33.4-.14a64.44,64.44,0,0,0-15,3.64c-4.29,1.76-9,4.35-11.18,8.7-2.05,4.15-1.07,10.22,3.8,11.83,2.3.76,3.28-2.86,1-3.61Z"/><path class="cls-1" d="M48.47,89.73c0,.06-.37-.08.14-.07.23,0,.47,0,.71,0a9.82,9.82,0,0,1,2.47.82,46.57,46.57,0,0,1,5.56,2.79,49.6,49.6,0,0,1,9.85,7.5,41.43,41.43,0,0,1,4.31,4.77c.17.22.41.94.59,1.06s-1.13.27.53,0c1-.17.41.06.38-.34a4.52,4.52,0,0,0-.42-.93,17.77,17.77,0,0,0-.77-1.66,22.74,22.74,0,0,0-8.17-8.13,84.85,84.85,0,0,0-13.6-6.59,1.9,1.9,0,0,0-2.31,1.31,1.92,1.92,0,0,0,1.31,2.31c4.9,2,10,4.17,14.28,7.26a17.77,17.77,0,0,1,4.78,4.92c1.09,1.76,1.57,4.76,3.91,5.32,2.78.66,4.36-2.46,3.61-4.77a10.74,10.74,0,0,0-2.26-3.37c-.84-1-1.73-2-2.64-2.92a53.88,53.88,0,0,0-12.19-9.37c-3.17-1.78-11.91-6.94-13.69-.88-.68,2.32,2.94,3.31,3.62,1Z"/><path class="cls-1" d="M40.24,83.85c2.22-3.81.21-9.16-3.23-11.68s-7.82-2.94-12-3.12-8.49-.25-12.21-2.26C6.63,63.44,3.69,55.51,3.19,48.05,2.66,40.1,4.43,31.79,9,25.52s12.14-10.18,19.44-9c-5.76-.62-9.81,5.93-11.89,11.78A19.45,19.45,0,0,0,15,36.44c.62,7.13,7.76,11.32,14.24,12.82A47.13,47.13,0,0,0,54.85,48c4.68-1.57,9.22-3.88,14.1-4.39s10.42,1.33,12.63,6c-4-2.27-8.68-3.63-13-2.17-4.69,1.59-7.91,6.12-10.82,10.4-3.57,5.24-7.29,11.93-4.72,17.79"/><path class="cls-1" d="M41.86,84.8C45.24,78.64,41,71.44,35.05,69c-3.37-1.42-7.06-1.65-10.67-1.8s-7.51-.25-10.77-2.07c-5.46-3-7.82-9.86-8.44-15.74-.74-7.17.43-14.79,4.2-21s11-11.14,18.57-10l.5-3.69c-6.68-.56-10.85,6.14-13,11.49-1.49,3.62-2.71,7.57-2.08,11.51a13.94,13.94,0,0,0,4.31,7.79c5,4.7,12.1,6.3,18.74,6.79a49.61,49.61,0,0,0,12.47-.7,65.26,65.26,0,0,0,11.59-3.57c3.71-1.41,7.7-2.92,11.74-2.43A9.62,9.62,0,0,1,80,50.62l2.57-2.57c-4-2.24-8.62-3.69-13.21-2.7-4,.88-7.26,3.78-9.77,6.92a56.45,56.45,0,0,0-7.08,11c-1.89,4-3,8.67-1.22,12.95a1.94,1.94,0,0,0,2.31,1.31,1.89,1.89,0,0,0,1.31-2.31c-1.46-3.51-.58-7.14,1-10.45A55.16,55.16,0,0,1,62,55.2c2-2.59,4.46-5.18,7.72-6.08,3.75-1,7.66.34,10.93,2.17a1.89,1.89,0,0,0,2.56-2.57c-2.75-5.59-9.35-7.66-15.19-6.85a49.47,49.47,0,0,0-10.69,3.27,52.08,52.08,0,0,1-11.08,3c-6.79,1-14.63.68-21-2.17a16.27,16.27,0,0,1-6.46-4.8,10.18,10.18,0,0,1-1.61-8.61,29.51,29.51,0,0,1,4.24-10c1.64-2.39,3.93-4.46,7-4.21,2.08.18,2.6-3.37.5-3.68A22.27,22.27,0,0,0,9.69,21.78C4.43,27.3,1.88,34.88,1.33,42.37c-.5,6.89.58,14.5,4.5,20.34a17.18,17.18,0,0,0,7.66,6.45c3.65,1.5,7.65,1.59,11.54,1.77s8.43.44,11.42,3.19c2.31,2.13,3.78,5.84,2.17,8.79-1.16,2.11,2.08,4,3.24,1.89Z"/><path class="cls-1" d="M126.68,68.5l2.74-18.37a3.64,3.64,0,0,0-.33-2.81c-.84-1-2.41-.62-3.61-.1L118,50.46c-2.53,1.1-5.19,2.22-7.89,1.9s-5.42-2.61-5.37-5.55c10.75-.92,21.36-3.29,31.86-6,5.86-1.5,11.85-3.19,16.75-7s8.56-10.17,7.69-16.6S153.57,5.48,148,7.9c7-3,15.08-5.32,21.74-1.62,4.2,2.33,7.11,6.73,9.18,11.32,2.6,5.76,4,12.91,1,18.42-1.83,3.32-5,5.49-8.22,7.18a49.44,49.44,0,0,1-16.55,5.24c-4,.52-8.74.93-10.87,4.65-1.13,1.95-1.2,4.38-1.25,6.67-.06,3.23-.11,6.53.88,9.57s3.27,5.8,6.23,6.27"/><path class="cls-1" d="M128.49,69l2.16-14.5c.3-2,.93-4.2.72-6.22a3.75,3.75,0,0,0-4-3.47c-2.07.06-4.12,1.33-6,2.13-2,.87-4,1.82-6.08,2.6-1.87.72-4.13,1.47-6.1.69a3.89,3.89,0,0,1-2.65-3.42l-1.88,1.87a166.59,166.59,0,0,0,21.51-3.43c6.48-1.44,13.15-2.84,19.38-5.18,5.79-2.17,11.07-5.53,14.4-10.87,3-4.89,4.15-11.21,1.51-16.51-2.47-5-8.51-8.86-14.07-6.6l1.45,3.43c7.15-3,16.29-5.57,22.66.45a26.9,26.9,0,0,1,6.13,9.63c1.45,3.61,2.49,7.72,1.85,11.63s-3.13,6.88-6.45,9a43.67,43.67,0,0,1-11.94,5.11c-3.76,1-7.63,1.19-11.4,2.08-3.51.83-6.55,2.77-7.83,6.27a21.27,21.27,0,0,0-.83,7,33.4,33.4,0,0,0,.55,7.6c.88,4.06,3.6,8.29,8,9.12,2.36.45,3.37-3.16,1-3.62-3.93-.75-5.36-5.22-5.65-8.71a54.3,54.3,0,0,1,0-6.75c.08-1.79.3-3.73,1.54-5.13,2.16-2.43,6.11-2.54,9.1-2.94a51,51,0,0,0,13-3.52c3.79-1.59,7.68-3.53,10.57-6.53a16.07,16.07,0,0,0,4.4-11.27,29.7,29.7,0,0,0-2.89-12.1,28.67,28.67,0,0,0-6.78-9.91C166,0,155.67,2.6,147,6.28c-1.93.82-.53,4.23,1.45,3.42,4-1.63,7.93,1.2,9.75,4.73,2.29,4.43.71,9.83-2,13.7-3,4.4-7.86,7-12.81,8.76A163.91,163.91,0,0,1,126,41.48a160.37,160.37,0,0,1-21.22,3.45,1.91,1.91,0,0,0-1.87,1.88,7.82,7.82,0,0,0,6.74,7.36c4.5.68,8.88-1.89,12.85-3.61l3.08-1.34c.43-.18,1.68-.94,2.19-.67-.27-.14-.09.11-.08.46a8.71,8.71,0,0,1-.15,1.35L127,54l-2.1,14a2,2,0,0,0,1.31,2.31A1.9,1.9,0,0,0,128.49,69Z"/><path class="cls-1" d="M185.9,141.17c.82,6.05,4.41,11.16,6.64,16.78a2.18,2.18,0,0,1,.21,1.3c-.16.6-.76.9-1.29,1.13l-20.19,8.68"/><path class="cls-1" d="M184.09,141.67a33,33,0,0,0,3.07,9.19c.66,1.4,1.36,2.78,2,4.18.37.76.73,1.53,1.08,2.3.13.3.26.6.38.91a4.62,4.62,0,0,1,.23.62q.38-.54,0-.3c-.12,0-.71.33-.86.39l-1.38.59-2.52,1.09-5.27,2.26-10.55,4.54a1.9,1.9,0,0,0-.68,2.57,1.93,1.93,0,0,0,2.57.67l11.47-4.93,6-2.57c1.48-.63,3.61-1.13,4.52-2.59,1.05-1.7.05-3.53-.67-5.14s-1.5-3.19-2.28-4.77a34.41,34.41,0,0,1-3.52-10,1.88,1.88,0,0,0-2.3-1.31,1.92,1.92,0,0,0-1.31,2.31Z"/><path class="cls-1" d="M169.34,178.38a37.2,37.2,0,0,1,6.67,7.26,2,2,0,0,1,.5,1.3,2.17,2.17,0,0,1-1,1.36,18.33,18.33,0,0,0-6.5,11.1"/><path class="cls-1" d="M168,179.71a38.29,38.29,0,0,1,4.65,4.62c.33.4.66.8,1,1.21a11,11,0,0,0,1,1.34c-.53,0,.55-.53-.07-.19a4,4,0,0,0-.59.48c-.37.31-.73.63-1.08,1a20.49,20.49,0,0,0-5.66,10.76,1.93,1.93,0,0,0,1.31,2.3,1.88,1.88,0,0,0,2.31-1.31,17.77,17.77,0,0,1,2.27-6,15.44,15.44,0,0,1,1.86-2.48c.76-.81,1.68-1.44,2.44-2.23,2.23-2.32.07-4.81-1.48-6.75a38.19,38.19,0,0,0-5.23-5.33,1.93,1.93,0,0,0-2.66,0,1.9,1.9,0,0,0,0,2.65Z"/><path class="cls-1" d="M170.31,208.53l5.34,1.41a2.93,2.93,0,0,1,1.59.79,3.57,3.57,0,0,1,.47,2.54l-.57,8.45"/><path class="cls-1" d="M169.81,210.34l4.58,1.2,1.05.28.25.07c-.17,0,.29.15.08,0s0-.08,0,.07c-.11-.24,0,0,0,.15.07.29,0-.24,0,.07a4,4,0,0,1,0,.49c-.05,3-.39,6-.59,9a1.89,1.89,0,0,0,1.87,1.87,1.91,1.91,0,0,0,1.88-1.87l.35-5.25a22.57,22.57,0,0,0,.14-5.06,4.13,4.13,0,0,0-3.36-3.28l-5.34-1.41a1.88,1.88,0,0,0-1,3.62Z"/><path class="cls-1" d="M87,69.46,101,47c1.27-2.06-2-3.94-3.24-1.89l-14,22.45c-1.28,2.05,2,3.94,3.24,1.89Z"/><path class="cls-1" d="M101.66,46.3q3.74-4.44,7.76-8.61c.31-.32.65-.63.93-1q.25-.23,0-.06l-1.45-.19q-.2-.28,0,0l-.05-.14a27.69,27.69,0,0,1,.76,2.7l1.58,5.74a1.88,1.88,0,0,0,3.62-1L113,37.09a7.35,7.35,0,0,0-1.28-3.15,2.54,2.54,0,0,0-3.52-.26A21.18,21.18,0,0,0,105.84,36c-.78.83-1.56,1.66-2.32,2.5-1.54,1.69-3,3.4-4.51,5.15a1.91,1.91,0,0,0,0,2.65,1.89,1.89,0,0,0,2.65,0Z"/><path class="cls-1" d="M113.27,54.93l3.52,14.39a1.88,1.88,0,0,0,3.62-1l-3.53-14.39a1.87,1.87,0,1,0-3.61,1Z"/><path class="cls-1" d="M148.5,73.13l20.74-11.36a1.25,1.25,0,0,1,.76-.22c.6.1.73,1,.71,1.63L170,87.76"/><path class="cls-1" d="M149.45,74.75,160,69c3.49-1.91,6.94-4,10.53-5.74l-.95.26c-.6-.82-.86-1-.78-.58,0,.18,0,.36,0,.54,0,.57,0,1.14-.06,1.72l-.09,2.95-.2,6.63-.39,13c-.08,2.42,3.67,2.41,3.75,0l.43-14.26.21-6.88c.05-1.79.6-4.42-.6-6-1.63-2.07-4-.26-5.74.67l-6,3.31-12.54,6.87c-2.11,1.16-.22,4.4,1.9,3.24Z"/><path class="cls-1" d="M185.61,223.66l2.22-5.9c.17-.43.39-.93.81-1a1.3,1.3,0,0,1,1,.3l4.64,2.94"/><path class="cls-1" d="M187.42,224.16l1.2-3.19.6-1.59.3-.8a2.26,2.26,0,0,0,.17-.43c0,.16-.16.33,0,.07s.24-.25-.06.05a1.08,1.08,0,0,1-.75.28.47.47,0,0,1-.37,0c-.13-.05-.11,0,0,0s.23.15.35.22l1.45.92,3,1.89a1.88,1.88,0,0,0,2.56-.67,1.93,1.93,0,0,0-.67-2.57l-3.49-2.21a13.85,13.85,0,0,0-1.78-1,2.66,2.66,0,0,0-2.94.49,4.86,4.86,0,0,0-1,1.84l-.72,1.92-1.45,3.82a1.9,1.9,0,0,0,1.31,2.31,1.93,1.93,0,0,0,2.31-1.31Z"/><path class="cls-1" d="M205.75,215.75l-1.56-4.86a1.7,1.7,0,0,1-.09-1.19,1.45,1.45,0,0,1,1.31-.65,37.75,37.75,0,0,1,6.29,0"/><path class="cls-1" d="M207.56,215.25l-1.11-3.43c-.17-.53-.35-1.06-.51-1.6a1.21,1.21,0,0,1-.05-.18c0-.17,0-.17,0,0s0,.17,0,0a.73.73,0,0,1-.08.38.77.77,0,0,1-.23.35c.1-.09.08-.08-.05,0s-.15.12,0,.05l-.23.1.24-.05c.35-.09-.44,0-.11,0l.9-.06c.6,0,1.2-.06,1.8-.07,1.19,0,2.39,0,3.59.12a1.88,1.88,0,0,0,1.87-1.88,1.91,1.91,0,0,0-1.87-1.87,36.4,36.4,0,0,0-4-.11c-.7,0-1.4,0-2.1.11a4.64,4.64,0,0,0-2.07.53,2.82,2.82,0,0,0-1.34,2.48,7.29,7.29,0,0,0,.53,2.15l1.26,3.93a1.88,1.88,0,0,0,3.62-1Z"/><path class="cls-1" d="M212.56,210.43l2.14,0a1.36,1.36,0,0,0,.72-.16,1.31,1.31,0,0,0,.6-.39,1.39,1.39,0,0,0,.39-.6,1.36,1.36,0,0,0,.16-.72,1.88,1.88,0,0,0-.55-1.33,2,2,0,0,0-1.32-.55l-2.14,0a1.46,1.46,0,0,0-.72.16,1.49,1.49,0,0,0-.6.39,1.28,1.28,0,0,0-.39.61,1.36,1.36,0,0,0-.16.72,1.86,1.86,0,0,0,.55,1.32,2,2,0,0,0,1.32.55Z"/><path class="cls-1" d="M220.67,192.93a15.83,15.83,0,0,1-1.83-1.74l-.15-.18c.32.29.1.13,0,0a4.33,4.33,0,0,1-.31-.51c0-.08-.09-.18-.14-.26s.13.38,0,.06-.12-.38-.16-.57,0-.31,0,.16c0-.08,0-.17,0-.25a4,4,0,0,1,0-.49c0-.33,0,.05,0,.15,0-.08,0-.21.06-.29s.12-.31.15-.46c0,.1-.21.4,0,.14l.11-.2s.22-.31,0,0,0,0,0,0,.26-.12-.12.06c.07,0,.13-.08.19-.11s.22,0-.17.06a2.41,2.41,0,0,0,.25-.08,1.88,1.88,0,0,0,1.31-2.3,1.91,1.91,0,0,0-2.3-1.31c-2.24.52-3.42,3-3.2,5.18.25,2.41,1.89,4.15,3.65,5.65a1.88,1.88,0,0,0,2.66-2.65Z"/><path class="cls-1" d="M218.89,169.48a1.88,1.88,0,0,0,0-3.75,1.88,1.88,0,0,0,0,3.75Z"/><path class="cls-1" d="M47.49,91.17c4,1.87,8,3.77,11.42,6.68s6.72,6.45,10,9.7a1.86,1.86,0,0,0,1.83.49,3.06,3.06,0,0,0,2.07-3c0-1.57-1.24-2.62-2.31-3.6-2.33-2.13-4.68-4.24-7.13-6.23-4.49-3.65-10-8.36-16.19-8-2.4.12-2.41,3.87,0,3.75,4.5-.24,8.62,3.11,12,5.71,1.86,1.44,3.64,3,5.4,4.51.94.83,1.86,1.66,2.79,2.51.42.38.86.76,1.27,1.16a4.15,4.15,0,0,0,.42.42c.1,0-.09-.23.08-.38l.83-.48-.22.09,1.82.48c-3.4-3.35-6.7-6.89-10.35-10a50.9,50.9,0,0,0-11.86-7,1.93,1.93,0,0,0-2.57.67,1.88,1.88,0,0,0,.68,2.56Z"/><path class="cls-1" d="M53.49,95.12q8.63,6.72,16.84,14a1.93,1.93,0,0,0,2.65,0,1.91,1.91,0,0,0,0-2.66q-8.2-7.22-16.84-14a1.93,1.93,0,0,0-2.65,0,1.9,1.9,0,0,0,0,2.65Z"/><path class="cls-1" d="M89.55,105a3,3,0,0,1,0-.6l-.07.5a4.35,4.35,0,0,1,.27-1l-.19.45s0-.1.07-.14a2.17,2.17,0,0,0,.19-1.45,1.47,1.47,0,0,0-.34-.64,1.5,1.5,0,0,0-.52-.48l-.45-.19a1.89,1.89,0,0,0-1,0l-.45.19a2,2,0,0,0-.67.67,6.13,6.13,0,0,0-.47,1.3A5.86,5.86,0,0,0,85.8,105a1.36,1.36,0,0,0,.16.72,1.39,1.39,0,0,0,.39.6,1.31,1.31,0,0,0,.6.39,1.38,1.38,0,0,0,.72.16l.5-.06a1.8,1.8,0,0,0,.83-.49l.29-.38a1.82,1.82,0,0,0,.26-.94Z"/><path class="cls-1" d="M88.91,104.07a6.21,6.21,0,0,1-.47-.78l-.09-.19c-.11-.21.14.37.06.15s-.11-.31-.16-.46c-.09-.3-.15-.6-.21-.9s0,.41,0,.17c0-.07,0-.15,0-.22s0-.33,0-.49,0-.59,0-.88c0,.14-.07.43,0,.12a1.55,1.55,0,0,1,0-.21,3,3,0,0,1,.1-.43c0-.16.09-.31.14-.46s.06-.14.08-.21-.18.38-.07.15a7,7,0,0,1,.48-.84,1.88,1.88,0,0,0-3.24-1.9,8.55,8.55,0,0,0,.09,9.27,2,2,0,0,0,1.12.86,1.87,1.87,0,0,0,2.12-2.75Z"/><path class="cls-1" d="M128.61,89.59c.48,0,.95.08,1.42.14l-.49-.06a26,26,0,0,1,3.25.66,1.87,1.87,0,0,0,1-3.61,26.75,26.75,0,0,0-5.17-.88,1.86,1.86,0,0,0-1.33.55,1.9,1.9,0,0,0-.55,1.32,1.93,1.93,0,0,0,.55,1.33,2.09,2.09,0,0,0,1.33.55Z"/><path class="cls-1" d="M119.91,89.78A32.3,32.3,0,0,1,136.43,92l.5-3.69a105.79,105.79,0,0,0-12.19-1.13,55.49,55.49,0,0,0-12.24,1.45c-3.81.79-7.7.89-11.41,2.2a64.3,64.3,0,0,0-10.27,5c-2.1,1.19-.22,4.43,1.89,3.24a58.15,58.15,0,0,1,9.59-4.74c3.63-1.25,7.46-1.35,11.2-2.12A51,51,0,0,1,125,90.89,111.11,111.11,0,0,1,136.93,92a1.83,1.83,0,0,0,1.84-1.62,1.91,1.91,0,0,0-1.34-2.06,36,36,0,0,0-18.52-2.18,1.88,1.88,0,0,0-1.3,2.31,1.92,1.92,0,0,0,2.3,1.31Z"/><path class="cls-1" d="M136,91.7a2.36,2.36,0,0,1,.46,0l-.5-.07a2.13,2.13,0,0,1,.61.17l-.45-.19a2.17,2.17,0,0,1,.53.31l-.38-.3.21.18a1.42,1.42,0,0,0,.6.39,1.94,1.94,0,0,0,2-.39l.29-.38a2,2,0,0,0,.26-1l-.07-.5a1.9,1.9,0,0,0-.48-.82c-.07-.07-.14-.12-.21-.18s-.36-.29-.56-.42a5.16,5.16,0,0,0-.89-.41A2,2,0,0,0,137,88a4.74,4.74,0,0,0-1-.09,1.36,1.36,0,0,0-.72.16,1.52,1.52,0,0,0-.61.39,1.37,1.37,0,0,0-.38.6,1.42,1.42,0,0,0-.16.73l.06.49a1.87,1.87,0,0,0,.48.83l.38.29a1.89,1.89,0,0,0,.95.26Z"/><path class="cls-1" d="M47.2,90.63,49,89.75a1.44,1.44,0,0,0,.52-.49,1.39,1.39,0,0,0,.34-.63,2.17,2.17,0,0,0-.19-1.45l-.29-.38a1.93,1.93,0,0,0-.83-.48l-.5-.07a1.89,1.89,0,0,0-1,.26l-1.77.88a1.45,1.45,0,0,0-.53.48,1.47,1.47,0,0,0-.34.64,1.59,1.59,0,0,0,0,.75,1.48,1.48,0,0,0,.22.7l.3.38a1.9,1.9,0,0,0,.82.48l.5.07a1.86,1.86,0,0,0,1-.26Z"/><path class="cls-1" d="M51.57,87.83c-.25-.08-.51-.17-.76-.27l.45.18A8.14,8.14,0,0,1,50,87a1.31,1.31,0,0,0-.69-.22,1.37,1.37,0,0,0-.75,0,1.45,1.45,0,0,0-.64.33,1.53,1.53,0,0,0-.48.53,1.89,1.89,0,0,0-.19,1.45l.19.44a1.82,1.82,0,0,0,.67.68,7.7,7.7,0,0,0,1,.57,10.15,10.15,0,0,0,1.5.59,1.44,1.44,0,0,0,.74,0,1.36,1.36,0,0,0,.7-.23,1.29,1.29,0,0,0,.53-.48,1.36,1.36,0,0,0,.33-.64l.07-.49a1.86,1.86,0,0,0-.26-1,1.9,1.9,0,0,0-1.12-.86Z"/><path class="cls-1" d="M171.82,228.68c-3.06-2-4.87-5.42-6.33-8.69a70.58,70.58,0,0,1-3.94-11.67,76.45,76.45,0,0,1-1.88-25.13c.22-2.4-3.53-2.39-3.75,0a79.31,79.31,0,0,0,2.24,27,73.17,73.17,0,0,0,4.43,12.42c1.69,3.64,3.94,7,7.33,9.29,2,1.34,3.9-1.91,1.9-3.23Z"/><path class="cls-1" d="M161.74,228.9c-4.35-3.82-6.65-9.23-8.07-14.74a81.92,81.92,0,0,1-2.37-20.34,1.88,1.88,0,0,0-3.75,0,85.1,85.1,0,0,0,2.61,21.73c1.58,5.94,4.23,11.87,8.93,16,1.81,1.59,4.47-1.06,2.65-2.65Z"/><path class="cls-1" d="M154.38,228.63a52.26,52.26,0,0,1-9.93-20.8c-.55-2.35-4.17-1.35-3.62,1a56.53,56.53,0,0,0,10.9,22.46,1.89,1.89,0,0,0,2.65,0,1.94,1.94,0,0,0,0-2.66Z"/><path class="cls-1" d="M144.79,229.53a49.24,49.24,0,0,1-5.14-15.62,1.89,1.89,0,0,0-2.3-1.31,1.93,1.93,0,0,0-1.31,2.31,52.12,52.12,0,0,0,5.51,16.51c1.14,2.13,4.38.24,3.24-1.89Z"/><path class="cls-1" d="M35.48,230.35A63,63,0,0,0,37,212.24a1.88,1.88,0,0,0-3.75,0,59.37,59.37,0,0,1-1.38,17.12c-.54,2.35,3.07,3.35,3.62,1Z"/><path class="cls-1" d="M39.49,229.94a12.53,12.53,0,0,0,.79-4.89,1.9,1.9,0,0,0-.55-1.33,1.87,1.87,0,0,0-2.65,0,2,2,0,0,0-.55,1.33,10.61,10.61,0,0,1-.08,1.87l.06-.5a10.84,10.84,0,0,1-.64,2.52,1.88,1.88,0,0,0,2.75,2.12,2.19,2.19,0,0,0,.87-1.12Z"/><path class="cls-1" d="M45.34,229.78a11.14,11.14,0,0,1,0-2.58l-.07.5c0-.4.13-.8.22-1.2a1.91,1.91,0,0,0-.19-1.44,1.87,1.87,0,0,0-2.56-.67,1.89,1.89,0,0,0-.86,1.12,13,13,0,0,0-.34,4.27,2,2,0,0,0,.55,1.32,1.87,1.87,0,0,0,2.65,0,1.84,1.84,0,0,0,.55-1.32Z"/><path class="cls-1" d="M30.27,227l11.66,5a1.93,1.93,0,0,0,2.57-.67,1.91,1.91,0,0,0-.67-2.57l-11.67-5a1.94,1.94,0,0,0-2.57.67,1.9,1.9,0,0,0,.68,2.57Z"/><path class="cls-1" d="M32.36,223.57l16.45,6.86a1.88,1.88,0,0,0,2.3-1.31,1.93,1.93,0,0,0-1.31-2.31L33.36,220a1.88,1.88,0,0,0-2.31,1.31,1.91,1.91,0,0,0,1.31,2.3Z"/><path class="cls-1" d="M172,219.81q-11.73,5.3-23.85,9.61c-2.25.81-1.28,4.43,1,3.62q12.57-4.48,24.74-10a1.89,1.89,0,0,0,.67-2.57,1.91,1.91,0,0,0-2.56-.67Z"/><path class="cls-1" d="M163.17,211.92l-31,10.23c-2.28.75-1.31,4.38,1,3.62l31-10.23c2.29-.76,1.31-4.38-1-3.62Z"/><path class="cls-1" d="M159,204.52a214.55,214.55,0,0,0-29.08,8.37c-2.24.82-1.27,4.45,1,3.62A211.7,211.7,0,0,1,160,208.14c2.36-.5,1.36-4.12-1-3.62Z"/><path class="cls-1" d="M163.94,197.61q-12.25,1.47-24.42,3.55c-2.38.41-1.37,4,1,3.62q11.67-2,23.43-3.42a1.94,1.94,0,0,0,1.87-1.88,1.87,1.87,0,0,0-1.87-1.87Z"/><path class="cls-1" d="M156.32,98.34c6.87,6.16,7.2,16.22,7,24.77-.07,2.42,3.68,2.42,3.75,0,.27-9.54-.43-20.59-8.05-27.43-1.79-1.6-4.45,1-2.65,2.66Z"/><path class="cls-1" d="M166.59,98A32.87,32.87,0,0,1,175,121.58c-.1,2.42,3.65,2.41,3.75,0a36.71,36.71,0,0,0-9.53-26.28c-1.64-1.77-4.29.88-2.65,2.65Z"/><path class="cls-1" d="M155.57,104.67q6-.39,12.13-.43c2,0,3.92,0,5.88.06a12.2,12.2,0,0,1,4.92,1c2.17,1,4.07-2.2,1.89-3.24-3.65-1.75-7.8-1.55-11.76-1.54q-6.54,0-13.06.43c-2.4.16-2.42,3.91,0,3.75Z"/><path class="cls-1" d="M149.64,118.54a48.49,48.49,0,0,1,32.06-.16c2.29.79,3.27-2.83,1-3.61a51.83,51.83,0,0,0-34,.15c-2.26.8-1.29,4.43,1,3.62Z"/></g></svg>