<svg xmlns="http://www.w3.org/2000/svg" viewBox="0 0 61 64"><defs><style>.cls-1{fill:#4ed868;stroke:#4ed868;stroke-miterlimit:10;stroke-width:0.75px;}</style></defs><title>Mesa de trabajo 11 copia</title><g id="detalles"><path class="cls-1" d="M59.44,32A29,29,0,0,1,21.93,59.65a32.85,32.85,0,0,0,3.6-7.59c.35-1.35,1.8-6.88,1.8-6.88C28.27,47,31,48.5,34,48.5c8.73,0,15-8,15-18,0-9.55-7.8-16.71-17.84-16.71C18.64,13.78,12,22.16,12,31.3c0,4.25,2.27,9.53,5.87,11.22.55.25.84.14,1-.39s.58-2.37.81-3.28a.88.88,0,0,0-.2-.83,11.39,11.39,0,0,1-2.14-6.6c0-6.39,4.83-12.56,13.07-12.56,7.11,0,12.09,4.84,12.09,11.77,0,7.84-3.95,13.26-9.1,13.26a4.2,4.2,0,0,1-4.28-5.23c.81-3.44,2.39-7.15,2.39-9.64,0-2.21-1.19-4.07-3.66-4.07-2.91,0-5.24,3-5.24,7a10.47,10.47,0,0,0,.86,4.29s-2.86,12.12-3.39,14.38A28,28,0,0,0,20,59,28.94,28.94,0,1,1,59.44,32Z"/></g></svg>