<svg xmlns="http://www.w3.org/2000/svg" viewBox="0 0 61 62"><defs><style>.cls-1{fill:#4ed868;stroke:#4ed868;stroke-miterlimit:10;stroke-width:0.75px;}</style></defs><title>Mesa de trabajo 11 copia 3</title><g id="detalles"><path class="cls-1" d="M50.35,10.28A28.25,28.25,0,0,0,5.9,44.36L1.89,59l15-3.94A28,28,0,0,0,30.36,58.5h0A28.51,28.51,0,0,0,58.89,30.25,28.35,28.35,0,0,0,50.35,10.28Zm-20,43.46a23.39,23.39,0,0,1-12-3.27L17.57,50,8.68,52.29l2.37-8.66-.56-.89A23.52,23.52,0,1,1,54.12,30.25,23.73,23.73,0,0,1,30.38,53.74ZM43.25,36.16c-.7-.36-4.17-2.06-4.82-2.29s-1.12-.36-1.59.35S35,36.51,34.6,37s-.83.53-1.53.18c-4.14-2.08-6.87-3.71-9.6-8.4-.73-1.25.72-1.16,2.07-3.86a1.29,1.29,0,0,0-.06-1.23c-.18-.36-1.59-3.83-2.18-5.24s-1.15-1.19-1.59-1.21-.87,0-1.35,0a2.61,2.61,0,0,0-1.88.88A7.93,7.93,0,0,0,16,24c0,3.48,2.53,6.83,2.88,7.31S23.86,38.88,31,42c4.48,1.93,6.23,2.1,8.47,1.77,1.37-.21,4.18-1.71,4.76-3.36A5.86,5.86,0,0,0,44.59,37C44.42,36.68,44,36.5,43.25,36.16Z"/></g></svg>