<svg xmlns="http://www.w3.org/2000/svg" viewBox="0 0 202 95"><defs><style>.cls-1{fill:#202121;}</style></defs><title>Mesa de trabajo 17</title><g id="detalles"><path class="cls-1" d="M184.5,5.5H17.5c-7.11,0-12.88,6.07-12.88,13.56V75.94c0,7.49,5.77,13.56,12.88,13.56h167c7.11,0,12.88-6.07,12.88-13.56V19.06C197.38,11.57,191.61,5.5,184.5,5.5ZM66.17,64.91a2.35,2.35,0,0,0-2.26,2.45l0,4-3.57-3.71a3.94,3.94,0,0,1-.05-5.33L75.25,46.1a3.41,3.41,0,0,1,5-.05L95.53,61.9a3.87,3.87,0,0,1,1.07,2.65Zm34.31-4.65L81.7,40.76a1.21,1.21,0,0,1,0-1.64l18.37-19.94a1,1,0,0,1,1.54,0l18.77,19.5a1.21,1.21,0,0,1,0,1.64L102,60.24A1,1,0,0,1,100.48,60.26Zm41.78,6.42-3.49,3.78,0-4a2.36,2.36,0,0,0-2.31-2.4L106,64.44a3.87,3.87,0,0,1,1-2.68l14.92-16.2a3.4,3.4,0,0,1,5-.06L142.2,61.35A3.94,3.94,0,0,1,142.26,66.68Z"/></g></svg>