<svg xmlns="http://www.w3.org/2000/svg" viewBox="0 0 67 62"><defs><style>.cls-1{fill:#1e1e1e;}</style></defs><g id="detalles"><path class="cls-1" d="M30.89,61l33.4-.2a1.71,1.71,0,0,0,0-3.42H45.23A30.15,30.15,0,1,0,30.89,61Zm-9.55-8.82a7.53,7.53,0,0,1-7.54-7.54c0-.06,0-.13,0-.19a7.53,7.53,0,0,1,15.05,0,1.21,1.21,0,0,1,0,.19A7.53,7.53,0,0,1,21.34,52.21Zm9.55-18a3.26,3.26,0,0,1-3.27-3.27,1.34,1.34,0,0,1,0-.2,3.27,3.27,0,0,1,6.52,0c0,.07,0,.13,0,.2A3.26,3.26,0,0,1,30.89,34.17Zm10.59,18a7.54,7.54,0,0,1-7.54-7.54c0-.06,0-.13,0-.19a7.53,7.53,0,0,1,15.06,0c0,.06,0,.13,0,.19A7.54,7.54,0,0,1,41.48,52.21Zm-1.67-26.5a7.53,7.53,0,0,1,15,0,1.27,1.27,0,0,1,0,.2,7.54,7.54,0,0,1-15.07,0C39.8,25.84,39.81,25.77,39.81,25.71ZM23.36,13.83a7.53,7.53,0,0,1,15.06,0c0,.06,0,.13,0,.19a7.54,7.54,0,0,1-15.08,0C23.35,14,23.36,13.89,23.36,13.83ZM7.61,25.71a7.53,7.53,0,0,1,15.05,0,1.27,1.27,0,0,1,0,.2,7.54,7.54,0,0,1-15.07,0C7.6,25.84,7.61,25.77,7.61,25.71Z"/></g></svg>