<?xml version="1.0" encoding="utf-8"?>
<!-- Generator: Adobe Illustrator 24.0.0, SVG Export Plug-In . SVG Version: 6.00 Build 0)  -->
<svg version="1.1" id="Capa_2" xmlns="http://www.w3.org/2000/svg" xmlns:xlink="http://www.w3.org/1999/xlink" x="0px" y="0px"
	 viewBox="0 0 545.7 528.9" style="enable-background:new 0 0 545.7 528.9;" xml:space="preserve">
<style type="text/css">
	.st0{fill:#4ED868;stroke:#4ED868;stroke-width:0.75;stroke-miterlimit:10;}
</style>
<path class="st0" d="M273.7,446.3c54.9-0.4,99.2-45.2,98.8-99.9c-0.1-9.1-7.6-16.5-16.7-16.4c-9.2,0.1-16.5,7.5-16.5,16.6
	c0.3,36.4-29.3,66.3-65.9,66.6c-9.2,0.1-16.5,7.5-16.5,16.6C257,439,264.5,446.3,273.7,446.3z M353.5,54.2c0-3.3-1-6.4-2.9-9.1
	L324.9,7.3C321.8,2.7,316.6,0,311,0l-81.8,0.6c-5.6,0-10.7,2.9-13.8,7.5l-25.1,38.2c-1.8,2.7-2.7,5.9-2.7,9.1l0.3,44.6l165.9-1.3
	L353.5,54.2z M274.3,528.9c106.1-0.8,181.9-87.1,181.1-183.1c-0.4-45.8-17.8-87.5-46.1-119.2c-17.4-19.5-44.8-60.3-55.1-94.7l0-0.1
	l-49.8,0.4l0,0.1c0,4.9,0.8,9.8,2.3,14.5c5.9,18.3,24.2,66.7,65.4,112.7c21.5,24,33.1,54.6,33.5,86.6c0.8,76-60.8,132.6-131.7,133.2
	c-73.2,0.6-133.2-58.2-133.8-131.1c-0.3-32,11.2-62.9,32.1-87.1c40.2-46.4,57.8-94.9,63.5-113.5c1.5-4.8,2.2-9.8,2.2-14.8l0-0.1
	l-49.8,0.4l0,0.1c-9.8,34.5-36.5,75.8-53.6,95.6c-27.9,32.2-44.6,74.1-44.2,119.9C91.1,448.9,173.5,529.6,274.3,528.9z"/>
</svg>
