<svg xmlns="http://www.w3.org/2000/svg" viewBox="0 0 645 481"><defs><style>.cls-1{fill:#3f3f3f;}.cls-2{fill:#727272;}.cls-3{fill:#8e8e8e;}.cls-4,.cls-5{fill:#919191;}.cls-5{stroke:#919191;stroke-miterlimit:10;stroke-width:5px;}</style></defs><title>Mesa de trabajo 19</title><g id="guias"><path d="M435.71,136.5c-5.63,0-10.21-4.33-10.21-9.65V56.52c0-8.08-6.82-14.65-15.21-14.65H229.71c-8.39,0-15.21,6.57-15.21,14.65v70.33c0,5.32-4.58,9.65-10.21,9.65h-1.58c-5.63,0-10.21-4.33-10.21-9.65V21.15c0-5.32,4.58-9.65,10.21-9.65H437.29c5.63,0,10.21,4.33,10.21,9.65v105.7c0,5.32-4.58,9.65-10.21,9.65Z"/><path class="cls-1" d="M437.29,14A7.46,7.46,0,0,1,445,21.15v105.7a7.46,7.46,0,0,1-7.71,7.15h-1.58a7.46,7.46,0,0,1-7.71-7.15V56.52c0-9.46-7.94-17.15-17.71-17.15H229.71c-9.77,0-17.71,7.69-17.71,17.15v70.33a7.46,7.46,0,0,1-7.71,7.15h-1.58a7.46,7.46,0,0,1-7.71-7.15V21.15A7.46,7.46,0,0,1,202.71,14H437.29m0-5H202.71c-7,0-12.71,5.44-12.71,12.15v105.7c0,6.71,5.69,12.15,12.71,12.15h1.58c7,0,12.71-5.44,12.71-12.15V56.52c0-6.71,5.69-12.15,12.71-12.15H410.29c7,0,12.71,5.44,12.71,12.15v70.33c0,6.71,5.69,12.15,12.71,12.15h1.58c7,0,12.71-5.44,12.71-12.15V21.15C450,14.44,444.31,9,437.29,9Z"/><rect class="cls-2" x="17.5" y="109.5" width="611" height="354" rx="21.83"/><path class="cls-3" d="M606.67,117A14.35,14.35,0,0,1,621,131.33V441.67A14.35,14.35,0,0,1,606.67,456H39.33A14.35,14.35,0,0,1,25,441.67V131.33A14.35,14.35,0,0,1,39.33,117H606.67m0-15H39.33A29.33,29.33,0,0,0,10,131.33V441.67A29.33,29.33,0,0,0,39.33,471H606.67A29.33,29.33,0,0,0,636,441.67V131.33A29.33,29.33,0,0,0,606.67,102Z"/><path class="cls-4" d="M566.45,136a19.35,19.35,0,0,1,19.33,19.33V418.67A19.35,19.35,0,0,1,566.45,438H78.85a19.35,19.35,0,0,1-19.33-19.33V155.33A19.35,19.35,0,0,1,78.85,136h487.6m0-10H78.85a29.33,29.33,0,0,0-29.33,29.33V418.67A29.33,29.33,0,0,0,78.85,448h487.6a29.33,29.33,0,0,0,29.33-29.33V155.33A29.33,29.33,0,0,0,566.45,126Z"/><path class="cls-5" d="M389.16,131.71,54.69,366.46a223.35,223.35,0,0,0-1,31.16c.71,19.3,1.19,29.22,7.28,36.36,9.82,11.52,29.24,9.93,36.35,9.35,55.23-4.54,439.15-209.83,493.39-238.91q-.52-23.88-1-47.78c0-2.78-.36-10.89-6.23-17.66-7.12-8.19-19.42-11.07-31.17-7.27Z"/></g></svg>